# xmcd CD database file
#
# Track frame offsets:
#	150
#	14475
#	25982
#	40420
#	54402
#	64160
#	77335
#	88602
#	99515
#	112925
#
# Disc length: 1684 seconds
#
# Revision: 0
# Processed by: cddbd v1.5.2PL0 Copyright (c) Steve Scherf et al.
# Submitted via: CDex 1.51
#
DISCID=7306920a
DTITLE=Various Artist - 70's Pure Country
DYEAR=1997
DGENRE=Country
TTITLE0=Don Williams - Tulsa Time
TTITLE1=Waylon Jennings and Willie Nelson - Mamas Don't Let Your Babies Grow Up To Be Cowboys
TTITLE2=Willie Nelson - Sweet Memories
TTITLE3=Emmylou Harris - Sweet Dreams
TTITLE4=Charley Pride - Someone Loves You Honey
TTITLE5=Dolly Parton - Here You Come Again
TTITLE6=Dave and Sugar - Golden Tears
TTITLE7=Mel Tillis - I Believe In You
TTITLE8=Ronnie Milsap - (I'm A) Stand By My Woman Man
TTITLE9=Waylon Jennings - Amanda
EXTD=YEAR: 1997
EXTT0=
EXTT1=
EXTT2=
EXTT3=
EXTT4=
EXTT5=
EXTT6=
EXTT7=
EXTT8=
EXTT9=
PLAYORDER=
